# xmcd CD database file
#
# Track frame offsets:
#	150
#	41352
#	63577
#	82542
#	105734
#	146278
#	167514
#	194825
#	215552
#	247152
#	267164
#	286812
#	311004
#
# Disc length: 4467 seconds
#
# Revision: 1
# Processed by: cddbd v1.5.2PL0 Copyright (c) Steve Scherf et al.
# Submitted via: CDex 1.70beta2
#
DISCID=b811710d
DTITLE=Eric Gale - Island Breeze/Blue Horizon
DYEAR=1900
DGENRE=Jazz
TTITLE0=Boardwalk
TTITLE1=We'll Make It (Sooner or Later)
TTITLE2=My Momma Told Me So
TTITLE3=Island Breeze
TTITLE4=Dark Romance
TTITLE5=I Know Thats Right
TTITLE6=Blue Horizon
TTITLE7=Wait Until The City Sleeps
TTITLE8=When Tokyo?
TTITLE9=Mako D'Amour
TTITLE10=Clock-A-Pa
TTITLE11=Call Me at the Same Number
TTITLE12=97th and Columbus
EXTD=
EXTT0=
EXTT1=
EXTT2=
EXTT3=
EXTT4=
EXTT5=
EXTT6=
EXTT7=
EXTT8=
EXTT9=
EXTT10=
EXTT11=
EXTT12=
PLAYORDER=
